# xmcd CD database file
# Copyright (C) 1993-1996 Ti Kan
#
# Track frame offsets:
#  150
#  25630
#  43010
#  60381
#  78886
#  98778
#  124200
#  143778
#  161540
#  179580
#  196105
#
# Disc length: 2922 seconds
#
# Revision: 1
# Processed by: cddbd v1.5.2PL0 Copyright (c) Steve Scherf et al.
# Submitted via: Advanced CD Ripper Pro 2.0
#
DISCID=870b680b
DTITLE=BERDAN MARDÝNÝ - HAZIR MISIN
DYEAR=2008
DGENRE=
TTITLE0=HAZIR MISIN
TTITLE1=BÝLEMEDÝM
TTITLE2=SESSÝZ SESSÝZ
TTITLE3=DESÝNLER
TTITLE4=KAPIYI ÇALAN SEN OLSAYDIN
TTITLE5=SANA KALMAZ
TTITLE6=LELE
TTITLE7=SEVMEK
TTITLE8=PARSEL PARSEL
TTITLE9=BURASI ADIYAMAN
TTITLE10=POTPORÝ
EXTD=
EXTT0=
EXTT1=
EXTT2=
EXTT3=
EXTT4=
EXTT5=
EXTT6=
EXTT7=
EXTT8=
EXTT9=
EXTT10=
PLAYORDER=
